<svg width="1421" height="1482" viewBox="0 0 1421 1482" fill="none" xmlns="http://www.w3.org/2000/svg">
<path d="M405.475 1462.4V1410.16H417.093V1462.4H405.475ZM414.355 1462.4V1452.34H442.993V1462.4H414.355ZM414.355 1440.57V1430.88H440.403V1440.57H414.355ZM414.355 1420.15V1410.16H442.623V1420.15H414.355ZM468.022 1462.4V1410.16H476.162L479.64 1420.59V1462.4H468.022ZM504.06 1462.4L473.276 1422.96L476.162 1410.16L506.946 1449.6L504.06 1462.4ZM504.06 1462.4L500.952 1451.97V1410.16H512.57V1462.4H504.06ZM564.317 1463.22C560.518 1463.22 556.942 1462.53 553.587 1461.14C550.282 1459.76 547.396 1457.86 544.929 1455.45C542.462 1452.98 540.514 1450.12 539.083 1446.86C537.702 1443.56 537.011 1440.01 537.011 1436.21C537.011 1432.41 537.726 1428.88 539.157 1425.62C540.588 1422.37 542.561 1419.53 545.077 1417.11C547.642 1414.65 550.627 1412.75 554.031 1411.42C557.435 1410.04 561.086 1409.34 564.983 1409.34C569.472 1409.34 573.542 1410.16 577.193 1411.79C580.893 1413.41 583.952 1415.66 586.369 1418.52L578.451 1426.44C576.774 1424.27 574.8 1422.64 572.531 1421.55C570.262 1420.47 567.696 1419.93 564.835 1419.93C561.776 1419.93 559.038 1420.62 556.621 1422C554.204 1423.33 552.304 1425.23 550.923 1427.7C549.591 1430.11 548.925 1432.95 548.925 1436.21C548.925 1439.46 549.591 1442.32 550.923 1444.79C552.255 1447.26 554.08 1449.18 556.399 1450.56C558.718 1451.94 561.382 1452.63 564.391 1452.63C567.45 1452.63 570.04 1452.07 572.161 1450.93C574.332 1449.75 575.984 1448.07 577.119 1445.9C578.303 1443.68 578.895 1440.99 578.895 1437.83L586.591 1443.01L563.281 1442.64V1432.8H590.735V1434.5C590.735 1440.77 589.6 1446.05 587.331 1450.34C585.111 1454.58 582.003 1457.79 578.007 1459.96C574.06 1462.13 569.497 1463.22 564.317 1463.22ZM614.797 1462.4V1410.16H626.415V1462.4H614.797ZM653.496 1462.4V1410.16H661.636L665.114 1420.59V1462.4H653.496ZM689.534 1462.4L658.75 1422.96L661.636 1410.16L692.42 1449.6L689.534 1462.4ZM689.534 1462.4L686.426 1451.97V1410.16H698.044V1462.4H689.534ZM725.149 1462.4V1410.16H736.767V1462.4H725.149ZM734.029 1462.4V1452.34H762.667V1462.4H734.029ZM734.029 1440.57V1430.88H760.077V1440.57H734.029ZM734.029 1420.15V1410.16H762.297V1420.15H734.029ZM787.697 1462.4V1410.16H799.315V1462.4H787.697ZM796.577 1462.4V1452.34H825.215V1462.4H796.577ZM796.577 1440.57V1430.88H822.625V1440.57H796.577ZM796.577 1420.15V1410.16H824.845V1420.15H796.577ZM859.124 1440.87V1432.28H870.15C872.469 1432.28 874.245 1431.69 875.478 1430.51C876.761 1429.32 877.402 1427.72 877.402 1425.7C877.402 1423.82 876.785 1422.27 875.552 1421.04C874.319 1419.8 872.543 1419.19 870.224 1419.19H859.124V1410.16H871.556C875.009 1410.16 878.043 1410.82 880.658 1412.16C883.273 1413.44 885.32 1415.24 886.8 1417.56C888.28 1419.88 889.02 1422.54 889.02 1425.55C889.02 1428.61 888.28 1431.3 886.8 1433.62C885.32 1435.89 883.248 1437.66 880.584 1438.94C877.92 1440.23 874.787 1440.87 871.186 1440.87H859.124ZM850.244 1462.4V1410.16H861.862V1462.4H850.244ZM878.66 1462.4L862.38 1439.91L873.036 1437.02L892.424 1462.4H878.66ZM914.526 1462.4V1410.16H926.144V1462.4H914.526ZM953.225 1462.4V1410.16H961.365L964.843 1420.59V1462.4H953.225ZM989.263 1462.4L958.479 1422.96L961.365 1410.16L992.149 1449.6L989.263 1462.4ZM989.263 1462.4L986.155 1451.97V1410.16H997.773V1462.4H989.263ZM1049.52 1463.22C1045.72 1463.22 1042.14 1462.53 1038.79 1461.14C1035.48 1459.76 1032.6 1457.86 1030.13 1455.45C1027.67 1452.98 1025.72 1450.12 1024.29 1446.86C1022.9 1443.56 1022.21 1440.01 1022.21 1436.21C1022.21 1432.41 1022.93 1428.88 1024.36 1425.62C1025.79 1422.37 1027.76 1419.53 1030.28 1417.11C1032.85 1414.65 1035.83 1412.75 1039.23 1411.42C1042.64 1410.04 1046.29 1409.34 1050.19 1409.34C1054.68 1409.34 1058.75 1410.16 1062.4 1411.79C1066.1 1413.41 1069.15 1415.66 1071.57 1418.52L1063.65 1426.44C1061.98 1424.27 1060 1422.64 1057.73 1421.55C1055.46 1420.47 1052.9 1419.93 1050.04 1419.93C1046.98 1419.93 1044.24 1420.62 1041.82 1422C1039.41 1423.33 1037.51 1425.23 1036.13 1427.7C1034.79 1430.11 1034.13 1432.95 1034.13 1436.21C1034.13 1439.46 1034.79 1442.32 1036.13 1444.79C1037.46 1447.26 1039.28 1449.18 1041.6 1450.56C1043.92 1451.94 1046.58 1452.63 1049.59 1452.63C1052.65 1452.63 1055.24 1452.07 1057.36 1450.93C1059.53 1449.75 1061.19 1448.07 1062.32 1445.9C1063.51 1443.68 1064.1 1440.99 1064.1 1437.83L1071.79 1443.01L1048.48 1442.64V1432.8H1075.94V1434.5C1075.94 1440.77 1074.8 1446.05 1072.53 1450.34C1070.31 1454.58 1067.21 1457.79 1063.21 1459.96C1059.26 1462.13 1054.7 1463.22 1049.52 1463.22Z" fill="#E5A54E"/>
<path d="M101.659 1188.54L67.7946 1180.02L73.7486 1155.9L102.613 1163.17C107.158 1164.31 111.061 1164.49 114.322 1163.7C117.677 1162.85 120.418 1161.08 122.545 1158.4C124.767 1155.65 126.431 1152.08 127.538 1147.69C128.816 1142.61 129.193 1138.4 128.668 1135.04C128.163 1131.61 126.652 1128.82 124.135 1126.65C121.619 1124.49 118.05 1122.82 113.429 1121.66L95.7012 1117.19L60.9844 1255.04L27.6882 1246.65L69.3599 1081.19L120.384 1094.05C128.641 1096.13 135.799 1098.89 141.856 1102.35C147.914 1105.81 152.748 1109.97 156.358 1114.83C159.969 1119.69 162.233 1125.25 163.15 1131.52C164.144 1137.82 163.667 1144.83 161.721 1152.55C160.004 1159.37 157.056 1165.32 152.879 1170.39C148.702 1175.46 143.238 1179.08 136.489 1181.24C129.815 1183.43 121.762 1183.58 112.329 1181.69L101.659 1188.54ZM82.3485 1260.42L40.1885 1249.8L60.4104 1225.65L89.2747 1232.92C93.6687 1234.03 97.4679 1233.98 100.672 1232.77C103.877 1231.56 106.485 1229.52 108.499 1226.64C110.532 1223.69 112.073 1220.13 113.122 1215.96C114.305 1211.27 114.767 1207.03 114.509 1203.26C114.326 1199.51 113.213 1196.41 111.171 1193.96C109.148 1191.44 106.015 1189.64 101.773 1188.57L73.1356 1181.36L79.4305 1157.33L114.204 1166.08L119.641 1177.61C128.581 1179.53 135.235 1183.02 139.603 1188.07C143.991 1193.04 146.577 1198.77 147.361 1205.25C148.24 1211.68 147.85 1218.18 146.19 1224.78C143.519 1235.38 139.26 1243.82 133.413 1250.08C127.661 1256.28 120.491 1260.28 111.905 1262.06C103.337 1263.77 93.4851 1263.22 82.3485 1260.42Z" fill="#FFF9C4"/>
<path d="M304.115 1202L299.641 1230.13C297.751 1242.01 294.628 1252.19 290.272 1260.68C286.006 1269.09 280.732 1275.89 274.451 1281.06C268.26 1286.17 261.182 1289.63 253.22 1291.45C245.334 1293.28 236.878 1293.48 227.851 1292.04C218.824 1290.6 210.807 1287.79 203.802 1283.59C196.874 1279.4 191.182 1273.9 186.726 1267.1C182.36 1260.24 179.417 1252.14 177.896 1242.8C176.388 1233.38 176.58 1222.73 178.47 1210.85L182.944 1182.73C184.883 1170.54 188.004 1160.12 192.308 1151.47C196.623 1142.74 201.966 1135.76 208.336 1130.52C214.719 1125.21 221.859 1121.6 229.757 1119.69C237.667 1117.71 246.136 1117.43 255.163 1118.87C264.19 1120.3 272.156 1123.19 279.059 1127.53C285.975 1131.8 291.642 1137.45 296.061 1144.48C300.492 1151.43 303.405 1159.73 304.799 1169.36C306.283 1178.93 306.055 1189.81 304.115 1202ZM265.963 1224.77L270.474 1196.42C271.751 1188.39 272.258 1181.47 271.997 1175.65C271.748 1169.76 270.755 1164.82 269.017 1160.82C267.279 1156.83 264.886 1153.72 261.839 1151.49C258.791 1149.27 255.068 1147.81 250.671 1147.11C246.273 1146.41 242.242 1146.63 238.577 1147.79C234.989 1148.96 231.749 1151.18 228.858 1154.43C226.043 1157.7 223.603 1162.1 221.538 1167.63C219.562 1173.09 217.935 1179.83 216.659 1187.85L212.148 1216.21C210.92 1223.92 210.45 1230.61 210.735 1236.27C211.021 1241.94 212.045 1246.69 213.808 1250.53C215.57 1254.37 217.975 1257.4 221.022 1259.63C224.16 1261.79 227.927 1263.22 232.325 1263.92C236.645 1264.6 240.593 1264.4 244.169 1263.31C247.834 1262.15 251.061 1260.01 253.851 1256.9C256.641 1253.78 259.05 1249.58 261.079 1244.28C263.108 1238.99 264.736 1232.49 265.963 1224.77Z" fill="#FFF9C4"/>
<path d="M395.593 1235.78L360.829 1232.46L363.072 1207.72L392.703 1210.54C397.369 1210.99 401.254 1210.57 404.358 1209.3C407.547 1207.96 409.99 1205.8 411.686 1202.82C413.468 1199.77 414.574 1195.99 415.004 1191.48C415.501 1186.27 415.237 1182.05 414.212 1178.81C413.194 1175.49 411.278 1172.96 408.463 1171.2C405.649 1169.44 401.87 1168.33 397.126 1167.88L378.927 1166.14L365.428 1307.65L331.248 1304.39L347.451 1134.53L399.83 1139.53C408.307 1140.34 415.801 1142 422.311 1144.5C428.822 1147.01 434.228 1150.39 438.531 1154.64C442.834 1158.9 445.912 1164.06 447.767 1170.12C449.699 1176.19 450.287 1183.19 449.53 1191.12C448.862 1198.12 446.847 1204.45 443.483 1210.09C440.12 1215.73 435.265 1220.14 428.921 1223.3C422.654 1226.47 414.715 1227.83 405.105 1227.38L395.593 1235.78ZM387.36 1309.74L344.08 1305.61L360.422 1278.68L390.053 1281.51C394.564 1281.94 398.312 1281.32 401.297 1279.64C404.282 1277.96 406.553 1275.55 408.109 1272.4C409.672 1269.18 410.658 1265.43 411.066 1261.15C411.526 1256.33 411.343 1252.07 410.518 1248.38C409.771 1244.7 408.203 1241.8 405.814 1239.69C403.433 1237.5 400.065 1236.2 395.71 1235.79L366.312 1232.98L368.905 1208.27L404.602 1211.68L411.717 1222.25C420.846 1222.8 427.95 1225.25 433.031 1229.58C438.119 1233.83 441.54 1239.1 443.294 1245.39C445.134 1251.61 445.731 1258.1 445.086 1264.86C444.047 1275.75 441.111 1284.73 436.277 1291.81C431.528 1298.81 425.044 1303.84 416.825 1306.9C408.614 1309.89 398.792 1310.83 387.36 1309.74Z" fill="#FFF9C4"/>
<path d="M513.26 1138.6L512.197 1156.62C511.898 1161.69 510.691 1166.9 508.575 1172.25C506.542 1177.53 503.901 1182.5 500.652 1187.16C497.403 1191.82 493.884 1195.76 490.094 1198.98L475.665 1188.86C478.203 1184.31 480.488 1179.4 482.521 1174.12C484.637 1168.77 485.909 1162.46 486.337 1155.21L487.406 1137.08L513.26 1138.6Z" fill="#FFF9C4"/>
<path d="M610.837 1277.39C610.916 1274.35 610.715 1271.57 610.233 1269.06C609.752 1266.54 608.64 1264.21 606.899 1262.05C605.236 1259.9 602.753 1257.72 599.449 1255.53C596.224 1253.33 591.986 1251.04 586.734 1248.63C580.478 1245.81 574.42 1242.84 568.562 1239.72C562.706 1236.52 557.448 1232.86 552.788 1228.76C548.127 1224.65 544.462 1219.86 541.791 1214.4C539.2 1208.86 538 1202.42 538.191 1195.08C538.379 1187.9 539.837 1181.41 542.567 1175.62C545.375 1169.83 549.254 1164.93 554.204 1160.92C559.156 1156.83 564.903 1153.73 571.444 1151.64C578.064 1149.54 585.395 1148.6 593.44 1148.81C604.373 1149.1 613.764 1151.61 621.612 1156.35C629.538 1161.08 635.585 1167.46 639.753 1175.46C643.999 1183.46 645.989 1192.58 645.722 1202.81L611.515 1201.92C611.641 1197.08 611.049 1192.8 609.739 1189.09C608.509 1185.31 606.438 1182.33 603.525 1180.14C600.612 1177.95 596.813 1176.8 592.127 1176.68C587.753 1176.56 584.098 1177.37 581.162 1179.09C578.306 1180.73 576.135 1183.06 574.65 1186.07C573.245 1189 572.493 1192.34 572.396 1196.09C572.322 1198.9 572.92 1201.46 574.189 1203.76C575.537 1205.98 577.399 1208.02 579.773 1209.88C582.149 1211.66 584.956 1213.42 588.193 1215.14C591.509 1216.87 595.138 1218.57 599.08 1220.23C606.732 1223.48 613.479 1227.02 619.318 1230.84C625.16 1234.59 630.014 1238.78 633.878 1243.41C637.745 1247.97 640.621 1253.08 642.505 1258.76C644.389 1264.44 645.237 1270.87 645.05 1278.05C644.865 1285.16 643.446 1291.61 640.794 1297.4C638.222 1303.12 634.539 1308.02 629.743 1312.12C624.949 1316.14 619.203 1319.19 612.506 1321.28C605.887 1323.38 598.516 1324.32 590.394 1324.1C582.506 1323.9 575.076 1322.61 568.104 1320.24C561.134 1317.79 555.014 1314.23 549.743 1309.56C544.553 1304.82 540.526 1298.89 537.663 1291.78C534.803 1284.6 533.499 1276.16 533.751 1266.48L568.076 1267.37C567.941 1272.53 568.334 1276.95 569.253 1280.65C570.175 1284.27 571.662 1287.2 573.713 1289.44C575.767 1291.6 578.302 1293.27 581.32 1294.44C584.417 1295.54 587.957 1296.14 591.941 1296.24C596.47 1296.36 600.085 1295.6 602.785 1293.95C605.564 1292.3 607.576 1290.05 608.823 1287.19C610.07 1284.33 610.741 1281.07 610.837 1277.39Z" fill="#FFF9C4"/>
<path d="M798.511 1246.14L763.612 1247.4L762.597 1222.58L792.343 1221.5C797.027 1221.33 800.824 1220.42 803.735 1218.75C806.72 1217 808.859 1214.54 810.151 1211.36C811.519 1208.11 812.121 1204.22 811.957 1199.69C811.768 1194.46 810.953 1190.3 809.512 1187.23C808.069 1184.08 805.838 1181.81 802.817 1180.43C799.797 1179.06 795.905 1178.46 791.143 1178.63L772.873 1179.29L778.015 1321.35L743.702 1322.59L737.53 1152.07L790.112 1150.17C798.623 1149.86 806.269 1150.52 813.051 1152.16C819.833 1153.79 825.636 1156.43 830.458 1160.09C835.281 1163.74 839.009 1168.45 841.641 1174.22C844.351 1179.99 845.851 1186.85 846.139 1194.81C846.393 1201.84 845.223 1208.37 842.627 1214.41C840.031 1220.44 835.795 1225.44 829.919 1229.41C824.121 1233.37 816.429 1235.76 806.843 1236.58L798.511 1246.14ZM800.032 1320.55L756.584 1322.12L769.26 1293.28L799.006 1292.21C803.534 1292.04 807.169 1290.94 809.909 1288.88C812.649 1286.83 814.584 1284.14 815.714 1280.82C816.842 1277.41 817.328 1273.56 817.173 1269.27C816.997 1264.43 816.259 1260.23 814.958 1256.69C813.735 1253.13 811.802 1250.47 809.157 1248.69C806.51 1246.83 803.001 1245.98 798.628 1246.14L769.117 1247.21L768.452 1222.37L804.288 1221.07L812.725 1230.62C821.848 1229.97 829.212 1231.47 834.815 1235.09C840.416 1238.64 844.498 1243.42 847.06 1249.43C849.698 1255.35 851.14 1261.71 851.386 1268.5C851.782 1279.43 850.046 1288.72 846.18 1296.36C842.388 1303.93 836.619 1309.77 828.872 1313.88C821.122 1317.91 811.509 1320.13 800.032 1320.55Z" fill="#FFF9C4"/>
<path d="M1001.48 1208.9L1003.72 1237.29C1004.67 1249.29 1004.02 1259.92 1001.78 1269.19C999.605 1278.37 996.072 1286.21 991.179 1292.71C986.357 1299.13 980.289 1304.15 972.975 1307.79C965.738 1311.42 957.564 1313.59 948.452 1314.31C939.34 1315.03 930.886 1314.17 923.091 1311.73C915.374 1309.29 908.553 1305.28 902.627 1299.71C896.773 1294.06 892.012 1286.88 888.344 1278.16C884.67 1269.36 882.359 1258.96 881.41 1246.97L879.165 1218.58C878.192 1206.27 878.783 1195.41 880.937 1185.99C883.086 1176.5 886.643 1168.46 891.608 1161.87C896.567 1155.21 902.662 1150.03 909.892 1146.32C917.116 1142.54 925.284 1140.28 934.396 1139.56C943.509 1138.84 951.929 1139.78 959.658 1142.38C967.381 1144.91 974.215 1149.07 980.16 1154.87C986.098 1160.59 990.874 1167.97 994.489 1177.01C998.175 1185.97 1000.51 1196.6 1001.48 1208.9ZM969.728 1239.98L967.464 1211.36C966.824 1203.26 965.695 1196.41 964.077 1190.82C962.453 1185.15 960.328 1180.58 957.702 1177.1C955.076 1173.62 952.021 1171.16 948.536 1169.71C945.052 1168.27 941.09 1167.72 936.651 1168.07C932.211 1168.42 928.346 1169.59 925.055 1171.57C921.841 1173.55 919.211 1176.46 917.164 1180.31C915.195 1184.15 913.855 1188.99 913.142 1194.85C912.501 1200.62 912.501 1207.56 913.142 1215.66L915.405 1244.28C916.021 1252.06 917.132 1258.68 918.738 1264.11C920.343 1269.55 922.453 1273.93 925.066 1277.25C927.68 1280.57 930.729 1282.95 934.214 1284.4C937.77 1285.77 941.767 1286.27 946.207 1285.92C950.568 1285.58 954.358 1284.46 957.578 1282.56C960.869 1280.57 963.506 1277.74 965.487 1274.05C967.468 1270.37 968.825 1265.72 969.556 1260.1C970.286 1254.47 970.344 1247.77 969.728 1239.98Z" fill="#FFF9C4"/>
<path d="M1129.9 1264.78L1133.2 1292.95L1062.78 1301.21L1059.48 1273.04L1129.9 1264.78ZM1053.39 1130.51L1073.26 1299.98L1039.16 1303.98L1019.29 1134.51L1053.39 1130.51Z" fill="#FFF9C4"/>
<path d="M1203.26 1110.28L1229.05 1278.94L1195.34 1284.1L1169.55 1115.43L1203.26 1110.28ZM1245.19 1103.87L1249.49 1132.02L1132.73 1149.87L1128.42 1121.72L1245.19 1103.87Z" fill="#FFF9C4"/>
<path d="M1357.92 1210.8C1357.35 1207.8 1356.57 1205.13 1355.56 1202.77C1354.56 1200.42 1352.98 1198.37 1350.82 1196.64C1348.74 1194.89 1345.85 1193.29 1342.15 1191.84C1338.54 1190.38 1333.91 1189.03 1328.27 1187.8C1321.55 1186.37 1315 1184.75 1308.62 1182.94C1302.22 1181.05 1296.3 1178.6 1290.88 1175.57C1285.45 1172.55 1280.86 1168.65 1277.09 1163.88C1273.38 1159.01 1270.84 1152.98 1269.47 1145.76C1268.13 1138.7 1268.18 1132.05 1269.62 1125.81C1271.14 1119.56 1273.89 1113.95 1277.88 1108.98C1281.85 1103.93 1286.81 1099.69 1292.76 1096.25C1298.78 1092.8 1305.75 1090.33 1313.65 1088.83C1324.4 1086.79 1334.11 1087.25 1342.78 1090.21C1351.53 1093.17 1358.79 1098.11 1364.56 1105.05C1370.41 1111.97 1374.29 1120.46 1376.2 1130.51L1342.58 1136.89C1341.67 1132.13 1340.19 1128.08 1338.12 1124.74C1336.12 1121.3 1333.46 1118.82 1330.15 1117.3C1326.84 1115.78 1322.88 1115.46 1318.28 1116.34C1313.98 1117.15 1310.58 1118.71 1308.07 1121.02C1305.63 1123.23 1304 1125.96 1303.19 1129.22C1302.44 1132.38 1302.41 1135.81 1303.11 1139.49C1303.64 1142.26 1304.76 1144.63 1306.49 1146.61C1308.28 1148.49 1310.53 1150.09 1313.25 1151.41C1315.95 1152.64 1319.06 1153.76 1322.59 1154.76C1326.2 1155.75 1330.1 1156.64 1334.31 1157.43C1342.48 1158.98 1349.82 1161 1356.34 1163.5C1362.84 1165.93 1368.47 1168.99 1373.23 1172.7C1377.98 1176.33 1381.87 1180.72 1384.92 1185.87C1387.96 1191.02 1390.15 1197.12 1391.49 1204.18C1392.82 1211.17 1392.8 1217.77 1391.44 1224C1390.14 1230.13 1387.58 1235.7 1383.76 1240.72C1379.93 1245.66 1374.96 1249.87 1368.86 1253.33C1362.83 1256.78 1355.83 1259.26 1347.85 1260.78C1340.09 1262.25 1332.56 1262.57 1325.24 1261.73C1317.91 1260.81 1311.18 1258.63 1305.04 1255.19C1298.96 1251.65 1293.77 1246.71 1289.46 1240.37C1285.14 1233.96 1282.08 1225.99 1280.27 1216.47L1314.01 1210.07C1314.97 1215.13 1316.29 1219.37 1317.97 1222.79C1319.64 1226.13 1321.71 1228.68 1324.19 1230.44C1326.66 1232.12 1329.49 1233.21 1332.69 1233.72C1335.95 1234.13 1339.54 1233.97 1343.45 1233.22C1347.9 1232.38 1351.27 1230.86 1353.56 1228.68C1355.93 1226.48 1357.42 1223.85 1358.03 1220.8C1358.64 1217.74 1358.6 1214.4 1357.92 1210.8Z" fill="#FFF9C4"/>
<path d="M1329 618.5C1329 792.313 1257.3 949.38 1141.87 1061.74C1068.72 1073.69 996.981 1082.08 927.552 1087.59C964.538 1057.13 923.755 1018.83 923.755 1018.83C969.755 976.833 921.255 941.333 921.255 941.333C969.755 900.833 923.755 864.333 923.755 864.333C963.255 819.333 922.255 788.333 922.255 788.333C965.255 746.333 920.255 713.333 920.255 713.333C962.755 679.833 927.255 638.333 927.255 638.333C927.255 638.333 1087.5 575 1093.26 560.833C1099.01 546.666 1103 282.5 1094.76 263.833C1086.51 245.166 881 134 866.755 130.333C852.51 126.667 566.755 127.333 553.255 130.333C539.755 133.333 337.255 245.833 327.255 259.833C317.256 273.833 320.756 552.833 327.255 560.333C333.755 567.833 488.255 638.333 488.255 638.333C488.255 638.333 455.255 682.833 496.755 713.333C496.755 713.333 451.755 750.333 495.255 788.833C495.255 788.833 451.755 820.333 496.755 863.833C496.755 863.833 455.255 900.333 496.852 941.333C496.852 941.333 455.255 980.333 496.852 1018.33C496.852 1018.33 452.755 1064.83 496.852 1087.83C497.449 1088.14 498.101 1088.45 498.807 1088.76C414.846 1082.63 341.221 1073.43 281.202 1063.75C164.556 951.256 92 793.351 92 618.5C92 276.912 368.912 0 710.5 0C1052.09 0 1329 276.912 1329 618.5Z" fill="#E5A54E"/>
<path d="M577.755 187.833C577.755 183.415 581.337 179.833 585.755 179.833H825.755C830.174 179.833 833.755 183.415 833.755 187.833V394.833C833.755 399.252 830.174 402.833 825.755 402.833H585.755C581.337 402.833 577.755 399.252 577.755 394.833V187.833Z" fill="#DEEAF5"/>
<path d="M876.755 202.994C876.755 196.769 883.552 192.929 888.884 196.142L1049.88 293.158C1052.29 294.606 1053.76 297.205 1053.76 300.01V503.672C1053.76 509.898 1046.96 513.737 1041.63 510.525L880.626 413.509C878.224 412.061 876.755 409.461 876.755 406.656V202.994Z" fill="#DEEAF5"/>
<path d="M539.755 202.994C539.755 196.769 532.958 192.929 527.626 196.142L366.626 293.158C364.224 294.606 362.755 297.205 362.755 300.01V504.672C362.755 510.898 369.552 514.737 374.884 511.525L535.884 414.509C538.287 413.061 539.755 410.461 539.755 407.656V202.994Z" fill="#94A5B6"/>
<path d="M871.596 527.383C700.779 519.741 639.482 547.69 563.865 566.853C479.218 588.305 599.843 510.779 699.142 495.291C809.066 478.145 941.945 530.53 871.596 527.383Z" fill="url(#paint0_linear_12_900)"/>
<path d="M871.596 604.498C700.779 596.856 639.482 624.805 563.865 643.968C479.218 665.42 599.843 587.894 699.142 572.406C809.066 555.26 941.945 607.645 871.596 604.498Z" fill="url(#paint1_linear_12_900)"/>
<path d="M871.596 681.498C700.779 673.856 639.482 701.805 563.865 720.968C479.218 742.42 599.843 664.894 699.142 649.406C809.066 632.26 941.945 684.645 871.596 681.498Z" fill="url(#paint2_linear_12_900)"/>
<path d="M871.596 758.498C700.779 750.856 639.482 778.805 563.865 797.968C479.218 819.42 599.843 741.894 699.142 726.406C809.066 709.26 941.945 761.645 871.596 758.498Z" fill="url(#paint3_linear_12_900)"/>
<path d="M872.169 835.498C701.352 827.856 640.055 855.805 564.438 874.968C479.791 896.42 600.416 818.894 699.715 803.406C809.639 786.26 942.518 838.645 872.169 835.498Z" fill="url(#paint4_linear_12_900)"/>
<path d="M871.596 912.498C700.779 904.856 639.482 932.805 563.865 951.968C479.218 973.42 599.843 895.894 699.142 880.406C809.066 863.26 941.945 915.645 871.596 912.498Z" fill="url(#paint5_linear_12_900)"/>
<path d="M871.596 989.498C700.779 981.856 639.482 1009.8 563.865 1028.97C479.218 1050.42 599.843 972.894 699.142 957.406C809.066 940.26 941.945 992.645 871.596 989.498Z" fill="url(#paint6_linear_12_900)"/>
<path d="M871.596 1067.17C700.779 1059.53 639.482 1087.47 563.865 1106.64C479.218 1128.09 599.843 1050.56 699.142 1035.08C809.066 1017.93 941.945 1070.31 871.596 1067.17Z" fill="url(#paint7_linear_12_900)"/>
<defs>
<linearGradient id="paint0_linear_12_900" x1="1282.21" y1="924.996" x2="490.544" y2="911.642" gradientUnits="userSpaceOnUse">
<stop offset="0.665111" stop-color="#DEEAF5"/>
<stop offset="0.678544" stop-color="#94A5B6"/>
</linearGradient>
<linearGradient id="paint1_linear_12_900" x1="1278.77" y1="923.438" x2="490.569" y2="910.142" gradientUnits="userSpaceOnUse">
<stop offset="0.665111" stop-color="#DEEAF5"/>
<stop offset="0.678544" stop-color="#94A5B6"/>
</linearGradient>
<linearGradient id="paint2_linear_12_900" x1="1287.37" y1="927.338" x2="490.506" y2="913.896" gradientUnits="userSpaceOnUse">
<stop offset="0.665111" stop-color="#DEEAF5"/>
<stop offset="0.678544" stop-color="#94A5B6"/>
</linearGradient>
<linearGradient id="paint3_linear_12_900" x1="1290.81" y1="928.897" x2="490.481" y2="915.397" gradientUnits="userSpaceOnUse">
<stop offset="0.665111" stop-color="#DEEAF5"/>
<stop offset="0.678544" stop-color="#94A5B6"/>
</linearGradient>
<linearGradient id="paint4_linear_12_900" x1="1276.8" y1="922.544" x2="490.584" y2="909.282" gradientUnits="userSpaceOnUse">
<stop offset="0.665111" stop-color="#DEEAF5"/>
<stop offset="0.678544" stop-color="#94A5B6"/>
</linearGradient>
<linearGradient id="paint5_linear_12_900" x1="1297.68" y1="932.017" x2="490.43" y2="918.4" gradientUnits="userSpaceOnUse">
<stop offset="0.665111" stop-color="#DEEAF5"/>
<stop offset="0.678544" stop-color="#94A5B6"/>
</linearGradient>
<linearGradient id="paint6_linear_12_900" x1="873.255" y1="1070.67" x2="649.652" y2="1070.67" gradientUnits="userSpaceOnUse">
<stop offset="0.665111" stop-color="#DEEAF5"/>
<stop offset="0.678544" stop-color="#94A5B6"/>
</linearGradient>
<linearGradient id="paint7_linear_12_900" x1="873.255" y1="1070.67" x2="649.652" y2="1070.67" gradientUnits="userSpaceOnUse">
<stop offset="0.665111" stop-color="#DEEAF5"/>
<stop offset="0.678544" stop-color="#94A5B6"/>
</linearGradient>
</defs>
</svg>
